<?xml version="1.0" encoding="utf-8"?>
<!-- Generator: Adobe Illustrator 17.0.0, SVG Export Plug-In . SVG Version: 6.00 Build 0)  -->
<!DOCTYPE svg PUBLIC "-//W3C//DTD SVG 1.1//EN" "http://www.w3.org/Graphics/SVG/1.1/DTD/svg11.dtd">
<svg version="1.1" xmlns="http://www.w3.org/2000/svg" xmlns:xlink="http://www.w3.org/1999/xlink" x="0px" y="0px" width="186px"
	 height="122px" viewBox="0 0 186 122" enable-background="new 0 0 186 122" xml:space="preserve">
<g id="Layer_5">
	<g>
		<path fill="#81939B" d="M67.781,32.8l1.756-12.028l1.252-0.375l8.133,9.059l-2.771,0.832l-1.061-1.185l-4.319,1.296l-0.219,1.569
			L67.781,32.8z M71.153,27.74l2.152-0.647l-1.766-1.999L71.153,27.74z"/>
		<path fill="#81939B" d="M86.368,28.374l-2.112-2.641l-1.772,0.263l0.427,2.89L80.05,29.31l-1.611-10.895l4.59-0.68
			c2.208-0.327,4.276,1.209,4.602,3.416c0.172,1.162-0.182,2.283-0.859,3.126l2.894,3.609L86.368,28.374z M82.118,23.526
			l1.772-0.262c0.872-0.129,1.468-0.915,1.339-1.786c-0.129-0.872-0.929-1.465-1.801-1.336l-1.772,0.261L82.118,23.526z"/>
		<path fill="#81939B" d="M97.176,27.777l-1.737-2.902l-1.792,0.021l0.035,2.922l-2.893,0.035l-0.131-11.012l4.64-0.055
			c2.232-0.027,4.074,1.772,4.101,4.004c0.014,1.174-0.488,2.238-1.272,2.981l2.382,3.967L97.176,27.777z M93.618,22.4l1.791-0.022
			c0.881-0.01,1.578-0.709,1.567-1.59c-0.01-0.88-0.723-1.578-1.605-1.566l-1.791,0.022L93.618,22.4z"/>
		<path fill="#81939B" d="M101.144,27.729l6.572-10.221l1.295,0.176l3.655,11.608l-2.866-0.389l-0.476-1.516l-4.467-0.607
			l-0.848,1.337L101.144,27.729z M106.306,24.518l2.226,0.301l-0.78-2.55L106.306,24.518z"/>
		<path fill="#81939B" d="M121.536,31.85l-3.549-6.452l-1.446,5.01l-2.78-0.802l3.055-10.584l1.129,0.326l3.568,6.442l1.442-4.996
			l2.78,0.802l-3.055,10.584L121.536,31.85z"/>
	</g>
</g>
<g id="Layer_6">
	<path fill="#81939B" d="M180.909,57.551c-1.125-3.118-19.155-1.39-22.935,0c-4.435,1.631-8.846,4.988-12.068,4.988l-5.022,0.075
		H44.342l-5.022-0.06c-4.469,0-9.457-3.235-12.886-4.17c-3.429-0.935-14.757-1.039-17.562,0c-2.806,1.039-5.678,8.535-4.554,11.653
		c1.124,3.118,19.155,1.39,22.935,0c4.435-1.631,8.846-4.988,12.068-4.988l5.022-0.075h96.542l5.022,0.06
		c4.469,0,9.457,3.235,12.886,4.17c3.429,0.935,14.757,1.039,17.563,0C179.16,68.164,182.033,60.669,180.909,57.551z"/>
	<polygon fill="#81939B" points="139.127,60.667 124.134,49.888 120.962,52.067 101.043,37.344 75.98,53.611 69.496,50.265 
		47.187,60.667 	"/>
</g>
<g id="Layer_19">
</g>
<g id="Layer_29">
	<g>
		<path fill="#81939B" d="M65.074,71.674l-8.464,8.489l10.048,10.073h-6.88l-6.608-6.583l-1.163,1.188v5.396H47.13V71.674h4.876
			v6.262l6.237-6.262H65.074z"/>
		<path fill="#81939B" d="M67.122,90.236l8.662-18.562h2.203l8.736,18.562h-4.875l-1.139-2.426h-7.598l-1.114,2.426H67.122z
			 M75.017,83.702h3.787l-1.881-4.083L75.017,83.702z"/>
		<path fill="#81939B" d="M97.931,83.405v6.831h-4.826v-6.831l-6.781-11.731h5.618l3.564,6.188l3.589-6.188h5.618L97.931,83.405z"/>
		<path fill="#81939B" d="M104.584,90.236l8.662-18.562h2.203l8.736,18.562h-4.875l-1.139-2.426h-7.598l-1.114,2.426H104.584z
			 M112.479,83.702h3.787l-1.881-4.083L112.479,83.702z"/>
		<path fill="#81939B" d="M144.599,71.674l-8.464,8.489l10.048,10.073h-6.88l-6.608-6.583l-1.163,1.188v5.396h-4.876V71.674h4.876
			v6.262l6.237-6.262H144.599z"/>
	</g>
	<g>
		<path fill="#81939B" d="M83.279,102.757c-0.455-0.455-1.101-0.719-1.85-0.719c-1.497,0-2.583,1.086-2.583,2.583
			s1.086,2.584,2.583,2.584c0.749,0,1.395-0.265,1.85-0.734l2.055,2.026c-0.999,0.998-2.378,1.629-3.905,1.629
			c-3.039,0-5.504-2.466-5.504-5.505c0-3.038,2.466-5.504,5.504-5.504c1.512,0,2.877,0.602,3.875,1.6L83.279,102.757z"/>
		<path fill="#81939B" d="M87.541,99.117h2.892v8.103h3.963v2.906h-6.855V99.117z"/>
		<path fill="#81939B" d="M99.082,105.737c0,0.792,0.646,1.438,1.438,1.438c0.793,0,1.438-0.646,1.438-1.438v-6.62h2.907v6.664
			c0,2.422-1.953,4.345-4.345,4.345c-2.422,0-4.345-1.923-4.345-4.345v-6.664h2.906V105.737z"/>
		<path fill="#81939B" d="M107.072,110.126V99.117h4.858c1.762,0,3.259,1.512,3.259,3.273c0,0.748-0.279,1.438-0.705,1.981
			c0.749,0.602,1.248,1.526,1.248,2.524c0,1.747-1.483,3.229-3.229,3.229H107.072z M111.358,103.418
			c0.528,0,0.954-0.426,0.954-0.954s-0.426-0.954-0.954-0.954h-1.395v1.908H111.358z M111.901,107.748
			c0.529,0,0.954-0.426,0.954-0.954s-0.455-0.954-0.954-0.954h-1.938v1.908H111.901z"/>
	</g>
</g>
</svg>
